<svg width="28" height="40" viewBox="0 0 28 40" fill="none" xmlns="http://www.w3.org/2000/svg">
<path d="M7.48216 2.32085C8.80486 0.474341 10.7583 -0.244988 12.6864 0.0726532C14.4527 0.363648 15.9773 1.47164 17.0243 2.81011C18.0917 4.17474 18.834 5.98918 18.834 7.98615C18.834 9.75289 18.388 11.4894 17.2496 12.8418C16.7853 13.3934 16.2471 13.8317 15.6572 14.166H27.9995V29.3677L25.5133 29.3959L17.7684 29.4838C17.7682 29.7403 17.7732 30.0089 17.7856 30.2839C17.8232 31.1119 17.9251 31.9303 18.1167 32.6315C18.3132 33.3508 18.5589 33.7798 18.7702 34.0036C18.9479 34.1917 19.3082 34.4237 19.9639 34.6027C20.6067 34.7782 21.3722 34.8584 22.1625 34.8685C22.9416 34.8784 23.6696 34.8197 24.2072 34.7567C24.4735 34.7256 24.6865 34.6942 24.8281 34.6715C24.8987 34.6602 24.9511 34.651 24.9829 34.6454C24.9987 34.6425 25.0095 34.6406 25.0147 34.6396C25.0154 34.6395 25.016 34.6393 25.0166 34.6392C25.0164 34.6393 25.0162 34.6393 25.016 34.6393C26.3791 34.3751 27.6945 35.2875 27.9549 36.6782C28.2154 38.0697 27.3209 39.4133 25.957 39.6791L25.4853 37.1595C25.9534 39.6597 25.9564 39.6791 25.9558 39.6794C25.9556 39.6794 25.9549 39.6795 25.9544 39.6796C25.9535 39.6798 25.9524 39.68 25.9513 39.6802C25.949 39.6807 25.9464 39.6812 25.9434 39.6818C25.9373 39.6829 25.9298 39.6843 25.9208 39.686C25.9028 39.6894 25.8789 39.6938 25.8495 39.699C25.7907 39.7095 25.7096 39.7235 25.6086 39.7397C25.4069 39.772 25.1243 39.8135 24.7805 39.8537C24.0983 39.9336 23.1491 40.0119 22.0997 39.9985C21.0615 39.9853 19.847 39.8818 18.6641 39.5588C17.4941 39.2394 16.1831 38.6581 15.1493 37.5636C14.1493 36.5047 13.5949 35.1877 13.2729 34.0093C12.946 32.8128 12.8107 31.582 12.7625 30.5211C12.7536 30.3234 12.7476 30.1291 12.744 29.9394C12.4033 29.9948 12.0483 30.0236 11.6799 30.0236C10.2559 30.0236 9.02396 29.5942 8.04876 28.8051C7.10849 28.0443 6.56928 27.0819 6.2583 26.2628C5.94793 25.4454 5.8247 24.6676 5.77336 24.1228C5.747 23.8431 5.73787 23.6057 5.73564 23.4297C5.73452 23.3413 5.73512 23.2672 5.73626 23.2096C5.7365 23.1977 5.73688 23.1865 5.73716 23.176V13.1277C4.21287 12.3293 2.62437 11.2892 0.996231 10.0309C-0.110624 9.17549 -0.328224 7.56654 0.510214 6.43724C1.34866 5.30794 2.92564 5.08594 4.0325 5.94137C4.66478 6.43002 5.2677 6.8641 5.84072 7.24838C6.04908 5.25124 6.57785 3.58328 7.48216 2.32085ZM10.7656 23.2141C10.7653 23.2141 10.739 23.2142 8.25139 23.2142H10.7656V23.2775L10.7637 23.3179C10.7635 23.3254 10.7634 23.3408 10.7637 23.3633C10.7644 23.4194 10.7676 23.5136 10.7787 23.6318C10.8024 23.8828 10.8548 24.1661 10.9473 24.4097C11.0392 24.6516 11.13 24.7503 11.1732 24.7853C11.1816 24.7921 11.2867 24.8931 11.6799 24.8931C12.0725 24.8931 12.2239 24.7911 12.286 24.7436C12.3806 24.6711 12.5022 24.5291 12.6203 24.2666C12.7388 24.0031 12.8132 23.7065 12.8548 23.4533C12.8746 23.333 12.8845 23.2375 12.8891 23.1808C12.8902 23.1686 12.8907 23.1585 12.8913 23.1505V14.9854C12.8287 14.9905 12.7659 14.995 12.703 14.9985C12.0824 15.0339 11.4356 14.9993 10.7656 14.8977V23.2141ZM17.9198 23.2423L17.9191 23.2705L15.4055 23.2142L16.8587 23.2469C17.9104 23.2708 17.919 23.2719 17.9191 23.2727C17.9191 23.2731 17.9191 23.2743 17.919 23.2751C17.919 23.2767 17.9189 23.2784 17.9189 23.2801C17.9188 23.2836 17.9187 23.2873 17.9186 23.2914C17.9184 23.2994 17.9181 23.3086 17.9177 23.3188C17.917 23.3392 17.916 23.3639 17.9146 23.3927C17.9117 23.4502 17.9071 23.5241 17.8998 23.6122C17.8853 23.7876 17.8597 24.0237 17.8141 24.3013C17.8113 24.3182 17.8083 24.3353 17.8053 24.3527L22.9711 24.294V19.2964H17.9198V23.2423ZM10.7626 23.3387C10.7626 23.3383 10.7627 23.3373 10.7628 23.3366C10.7628 23.3353 10.7629 23.334 10.7629 23.3328C10.763 23.3323 10.763 23.3318 10.763 23.3313L10.7626 23.3387ZM11.8848 5.13747C11.831 5.12861 11.797 5.12969 11.7798 5.13141C11.764 5.133 11.7563 5.13568 11.7513 5.13774C11.7467 5.13966 11.729 5.14738 11.6981 5.17276C11.6663 5.19887 11.6114 5.25118 11.542 5.34812C11.2362 5.77497 10.7656 6.91207 10.7656 9.36208V9.66829C11.4313 9.84237 11.9848 9.90111 12.4224 9.87616C13.0767 9.83886 13.3234 9.63159 13.435 9.49908C13.5744 9.33342 13.8056 8.91284 13.8056 7.98615C13.8056 7.28967 13.5393 6.5797 13.0939 6.01023C12.628 5.41463 12.1356 5.17878 11.8848 5.13747Z" fill="url(#paint0_linear_63_815)"/>
<defs>
<linearGradient id="paint0_linear_63_815" x1="14" y1="0" x2="14" y2="40" gradientUnits="userSpaceOnUse">
<stop stop-color="#EC6333"/>
<stop offset="1" stop-color="#3E459D"/>
</linearGradient>
</defs>
</svg>
