<svg width="126" height="126" viewBox="0 0 126 126" fill="none" xmlns="http://www.w3.org/2000/svg">
<rect width="126" height="126" rx="63" fill="#D9D9D9"/>
<path fill-rule="evenodd" clip-rule="evenodd" d="M81.9008 50.4C81.9008 60.8382 73.439 69.3 63.0008 69.3C52.5626 69.3 44.1008 60.8382 44.1008 50.4C44.1008 39.9618 52.5626 31.5 63.0008 31.5C73.439 31.5 81.9008 39.9618 81.9008 50.4ZM75.6008 50.4C75.6008 57.3588 69.9596 63 63.0008 63C56.042 63 50.4008 57.3588 50.4008 50.4C50.4008 43.4412 56.042 37.8 63.0008 37.8C69.9596 37.8 75.6008 43.4412 75.6008 50.4Z" fill="#E0E0E0" style="mix-blend-mode:plus-darker"/>
<path d="M63.0008 78.75C42.6065 78.75 25.23 90.8095 18.6108 107.705C20.2233 109.306 21.9219 110.821 23.6991 112.241C28.6281 96.7292 44.0904 85.05 63.0008 85.05C81.9111 85.05 97.3735 96.7293 102.302 112.241C104.08 110.821 105.778 109.306 107.391 107.705C100.772 90.8095 83.3951 78.75 63.0008 78.75Z" fill="#E0E0E0" style="mix-blend-mode:plus-darker"/>
</svg>
