<svg width="613" height="858" viewBox="0 0 613 858" fill="none" xmlns="http://www.w3.org/2000/svg">
<path d="M163.676 49.7609C192.611 10.1703 235.343 -5.25274 277.521 1.55774C316.16 7.79691 349.512 31.5531 372.414 60.2511C395.764 89.5098 412.003 128.413 412.003 171.23C412.003 209.11 402.246 246.343 377.344 275.338C367.186 287.165 355.413 296.564 342.508 303.731H612.503V629.667L558.115 630.273L388.692 632.157C388.687 637.657 388.796 643.414 389.069 649.312C389.891 667.066 392.119 684.613 396.311 699.647C400.61 715.069 405.984 724.268 410.607 729.066C414.494 733.099 422.377 738.073 436.721 741.911C450.781 745.674 467.527 747.392 484.815 747.609C501.858 747.822 517.783 746.563 529.545 745.213C535.368 744.545 540.03 743.871 543.126 743.385C544.671 743.142 545.816 742.947 546.512 742.825C546.859 742.765 547.094 742.722 547.208 742.701C547.224 742.698 547.238 742.696 547.249 742.693C547.245 742.694 547.242 742.695 547.237 742.695C577.054 737.03 605.831 756.592 611.526 786.41C617.225 816.246 597.658 845.054 567.822 850.753L557.503 796.73C567.742 850.336 567.809 850.752 567.796 850.758C567.791 850.759 567.776 850.762 567.766 850.764C567.745 850.768 567.722 850.772 567.697 850.776C567.648 850.786 567.59 850.797 567.523 850.81C567.391 850.834 567.226 850.864 567.029 850.901C566.635 850.973 566.113 851.067 565.47 851.18C564.184 851.405 562.409 851.704 560.2 852.051C555.789 852.744 549.606 853.633 542.086 854.496C527.161 856.209 506.398 857.888 483.44 857.601C460.73 857.317 434.162 855.098 408.285 848.173C382.692 841.324 354.012 828.861 331.398 805.394C309.522 782.692 297.395 754.452 290.352 729.188C283.2 703.534 280.24 677.144 279.187 654.399C278.99 650.158 278.859 645.993 278.78 641.925C271.327 643.114 263.563 643.73 255.503 643.73C224.354 643.73 197.403 634.523 176.07 617.606C155.501 601.294 143.706 580.659 136.903 563.097C130.114 545.569 127.418 528.894 126.295 517.213C125.718 511.216 125.519 506.125 125.47 502.353C125.445 500.457 125.458 498.867 125.483 497.634C125.489 497.378 125.497 497.138 125.503 496.912V281.469C92.1585 264.35 57.4094 242.051 21.793 215.071C-2.41996 196.73 -7.18006 162.233 11.1612 138.02C29.5025 113.807 63.9998 109.047 88.2129 127.388C102.044 137.865 115.233 147.172 127.769 155.411C132.326 112.591 143.894 76.8285 163.676 49.7609ZM235.503 497.73C235.497 497.73 234.92 497.731 180.503 497.731H235.503V499.089L235.46 499.954C235.458 500.115 235.454 500.447 235.46 500.928C235.476 502.132 235.545 504.15 235.789 506.685C236.307 512.066 237.455 518.141 239.478 523.363C241.487 528.551 243.473 530.666 244.42 531.417C244.603 531.562 246.902 533.73 255.503 533.73C264.092 533.73 267.403 531.543 268.762 530.523C270.832 528.969 273.492 525.925 276.075 520.295C278.667 514.645 280.295 508.287 281.205 502.859C281.637 500.279 281.854 498.231 281.956 497.016C281.978 496.754 281.991 496.536 282.003 496.365V321.3C280.634 321.409 279.261 321.504 277.885 321.581C264.308 322.34 250.159 321.598 235.503 319.418V497.73ZM392.003 498.335L391.989 498.939L337.003 497.731L368.792 498.433C391.798 498.946 391.987 498.968 391.988 498.986C391.988 498.995 391.988 499.02 391.987 499.037C391.987 499.071 391.985 499.107 391.984 499.145C391.983 499.219 391.981 499.3 391.979 499.386C391.974 499.558 391.967 499.755 391.959 499.974C391.943 500.412 391.921 500.942 391.89 501.559C391.827 502.791 391.727 504.376 391.567 506.265C391.25 510.026 390.689 515.088 389.691 521.039C389.631 521.402 389.565 521.77 389.5 522.142L502.503 520.884V413.731H392.003V498.335ZM235.438 500.401C235.438 500.393 235.44 500.371 235.44 500.357C235.442 500.328 235.443 500.301 235.444 500.275C235.445 500.264 235.445 500.253 235.445 500.243L235.438 500.401ZM259.985 110.151C258.809 109.962 258.064 109.985 257.69 110.022C257.343 110.056 257.174 110.113 257.065 110.157C256.964 110.199 256.578 110.364 255.901 110.908C255.205 111.468 254.005 112.59 252.486 114.668C245.798 123.82 235.503 148.2 235.503 200.731V207.296C250.065 211.029 262.173 212.288 271.746 211.753C286.058 210.953 291.456 206.509 293.897 203.668C296.947 200.116 302.003 191.099 302.003 171.23C302.003 156.297 296.18 141.074 286.436 128.864C276.244 116.094 265.471 111.037 259.985 110.151Z" fill="url(#paint0_linear_52_1751)"/>
<defs>
<linearGradient id="paint0_linear_52_1751" x1="306.257" y1="0" x2="306.257" y2="857.633" gradientUnits="userSpaceOnUse">
<stop stop-color="#EC6333"/>
<stop offset="1" stop-color="#3E459D"/>
</linearGradient>
</defs>
</svg>
